<svg width="23" height="23" viewBox="0 0 23 23" xmlns="http://www.w3.org/2000/svg">
    <g fill-rule="evenodd">
        <path d="M11.088 3c4.374 0 7.933 3.589 7.933 8 0 4.41-3.56 8-7.933 8-4.375 0-7.934-3.59-7.934-8 0-4.411 3.56-8 7.934-8m5.895 16.428a9.985 9.985 0 0 1-5.895 1.917C5.516 21.345 1 16.79 1 11.172S5.516 1 11.088 1c5.57 0 10.087 4.554 10.087 10.172 0 1.905-.519 3.688-1.422 5.212l3.04 3.15a1.311 1.311 0 0 1 0 1.777l-1.145 1.21a1.147 1.147 0 0 1-1.68 0l-2.985-3.093z"></path>
    </g>
</svg>